<?xml version="1.0" encoding="iso-8859-1"?>
<!-- Generator: Adobe Illustrator 19.0.0, SVG Export Plug-In . SVG Version: 6.00 Build 0)  -->
<svg version="1.1" id="Layer_1" xmlns="http://www.w3.org/2000/svg" xmlns:xlink="http://www.w3.org/1999/xlink" x="0px" y="0px"
	 viewBox="0 0 508 508" style="enable-background:new 0 0 508 508;" xml:space="preserve">
<g>
	<g>
		<path d="M506.4,113.55L451.2,7.65c-2.4-4.7-7.2-7.6-12.5-7.6H69.3c-5.3,0-10.1,2.9-12.5,7.6L1.6,113.55c-0.1,0.2-1.6,2.8-1.6,6.5
			v373.8c0,7.8,6.3,14.1,14.1,14.1h479.8c7.8,0,14.1-6.3,14.1-14.1v-373.8C508,116.45,506.5,113.75,506.4,113.55z M77.9,28.25h352.3
			l40.5,77.7H37.4L77.9,28.25z M479.8,479.85L479.8,479.85H28.2v-267.7h451.6V479.85z M479.8,183.85L479.8,183.85H28.2v-49.7h451.6
			V183.85z"/>
	</g>
</g>
<g>
	<g>
		<path d="M437.5,240.35H70.6c-7.8,0-14.1,6.3-14.1,14.1v183.1c-0.1,7.7,6.3,14.1,14.1,14.1h366.9c7.8,0,14.1-6.3,14.1-14.1v-183.1
			C451.6,246.65,445.3,240.35,437.5,240.35z M423.3,423.35H84.7v-154.8h46.8v21.7c0,7.8,6.3,14.1,14.1,14.1
			c7.8,0,14.1-6.3,14.1-14.1v-21.7h28.2v50c0,7.8,6.3,14.1,14.1,14.1c7.8,0,14.1-6.3,14.1-14.1v-50h207.2V423.35z"/>
	</g>
</g>
<g>
	<g>
		<path d="M86.9,144.95H70.6c-7.8,0-14.1,6.3-14.1,14.1s6.3,14.1,14.1,14.1h16.3c7.8,0,14.1-6.3,14.1-14.1S94.7,144.95,86.9,144.95z
			"/>
	</g>
</g>
<g>
	<g>
		<path d="M203.7,144.95h-16.3c-7.8,0-14.1,6.3-14.1,14.1s6.3,14.1,14.1,14.1h16.3c7.8,0,14.1-6.3,14.1-14.1
			S211.5,144.95,203.7,144.95z"/>
	</g>
</g>
<g>
	<g>
		<path d="M320.5,144.95h-16.3c-7.8,0-14.1,6.3-14.1,14.1s6.4,14.1,14.1,14.1h16.3c7.8,0,14.1-6.3,14.1-14.1
			S328.3,144.95,320.5,144.95z"/>
	</g>
</g>
<g>
	<g>
		<path d="M437.4,144.95h-16.3c-7.8,0-14.1,6.3-14.1,14.1s6.3,14.1,14.1,14.1h16.3c7.8,0,14.1-6.3,14.1-14.1
			S445.2,144.95,437.4,144.95z"/>
	</g>
</g>
<g>
	<g>
		<path d="M191.6,53.05h-72.1c-7.8,0-14.1,6.3-14.1,14.1c0,7.8,6.3,14.1,14.1,14.1h72.1c7.8,0,14.1-6.3,14.1-14.1
			S199.4,53.05,191.6,53.05z"/>
	</g>
</g>
<g>
	<g>
		<path d="M388.5,53.05h-72.1c-7.8,0-14.1,6.3-14.1,14.1c0,7.8,6.3,14.1,14.1,14.1h72.1c7.8,0,14.1-6.3,14.1-14.1
			S396.3,53.05,388.5,53.05z"/>
	</g>
</g>
<g>
</g>
<g>
</g>
<g>
</g>
<g>
</g>
<g>
</g>
<g>
</g>
<g>
</g>
<g>
</g>
<g>
</g>
<g>
</g>
<g>
</g>
<g>
</g>
<g>
</g>
<g>
</g>
<g>
</g>
</svg>
